<?xml version="1.0" encoding="UTF-8"?> <svg xmlns="http://www.w3.org/2000/svg" width="91" height="91" viewBox="0 0 91 91" fill="none"> <path d="M1.9961 45.9492C1.9961 21.6487 21.6956 1.94925 45.9961 1.94925C70.2966 1.94925 89.9961 21.6487 89.9961 45.9492C89.9961 70.2498 70.2966 89.9492 45.9961 89.9492C21.6956 89.9492 1.9961 70.2498 1.9961 45.9492Z" stroke="#00FFF0" stroke-width="2"></path> <path d="M17.9961 29.5C17.9961 14.3122 30.3083 2 45.4961 2C60.6839 2 72.9961 14.3122 72.9961 29.5C72.9961 44.6878 60.6839 57 45.4961 57C30.3083 57 17.9961 44.6878 17.9961 29.5Z" stroke="#00FFF0" stroke-width="2"></path> <path d="M17.9961 62.498C17.9961 47.3102 30.3083 34.998 45.4961 34.998C60.6839 34.998 72.9961 47.3102 72.9961 62.498C72.9961 77.6859 60.6839 89.998 45.4961 89.998C30.3083 89.998 17.9961 77.6859 17.9961 62.498Z" stroke="#00FFF0" stroke-width="2"></path> <circle cx="45.3837" cy="29.6105" r="1.61242" transform="rotate(90 45.3837 29.6105)" fill="#00FFF0"></circle> <circle cx="45.3837" cy="62.6124" r="1.61242" transform="rotate(90 45.3837 62.6124)" fill="#00FFF0"></circle> <path d="M61.998 18.5C77.1859 18.5 89.498 30.8122 89.498 46C89.498 61.1878 77.1859 73.5 61.998 73.5C46.8102 73.5 34.498 61.1878 34.498 46C34.4981 30.8122 46.8102 18.5 61.998 18.5Z" stroke="#00FFF0" stroke-width="2"></path> <path d="M29 18.5C44.1878 18.5 56.5 30.8122 56.5 46C56.5 61.1878 44.1878 73.5 29 73.5C13.8122 73.5 1.5 61.1878 1.5 46C1.5 30.8122 13.8122 18.5 29 18.5Z" stroke="#00FFF0" stroke-width="2"></path> <circle cx="61.8876" cy="45.8876" r="1.61242" transform="rotate(-180 61.8876 45.8876)" fill="#00FFF0"></circle> <circle cx="28.8856" cy="45.8876" r="1.61242" transform="rotate(-180 28.8856 45.8876)" fill="#00FFF0"></circle> </svg> 