<?xml version="1.0" encoding="UTF-8"?> <svg xmlns="http://www.w3.org/2000/svg" width="1414" height="75" viewBox="0 0 1414 75" fill="none"> <path d="M13.2852 50.5931L13.2852 23.1398L35.4249 1.00003L371.507 1.00006M371.507 1.00006L371.507 50.5931M371.507 1.00006L717.33 1.00009M717.33 1.00009L717.33 50.5931M717.33 1.00009L1085.29 1.00012M1085.29 1.00012L1085.29 50.5931M1085.29 1.00012C1193.2 2.16679 1409.7 3.80012 1412.5 1.00012" stroke="url(#paint0_linear_132_923)" stroke-width="1.77118"></path> <path d="M13.2852 50.5931L13.2852 23.1398L35.4249 1.00003L371.507 1.00006M371.507 1.00006L371.507 50.5931M371.507 1.00006L717.33 1.00009M717.33 1.00009L717.33 50.5931M717.33 1.00009L1085.29 1.00012M1085.29 1.00012L1085.29 50.5931M1085.29 1.00012C1193.2 2.16679 1409.7 3.80012 1412.5 1.00012" stroke="url(#paint1_linear_132_923)" stroke-width="1.77118"></path> <path d="M7.44312 71.0123L2.04518 61.6628L7.44312 52.3133L18.239 52.3133L23.6369 61.6628L18.239 71.0123L7.44312 71.0123Z" stroke="#00FFF0" stroke-width="3.54236"></path> <path d="M366.107 71.0123L360.709 61.6628L366.107 52.3133L376.903 52.3133L382.301 61.6628L376.903 71.0123L366.107 71.0123Z" stroke="#00FFF0" stroke-width="3.54236"></path> <path d="M712.373 71.0123L706.975 61.6628L712.373 52.3133L723.169 52.3133L728.567 61.6628L723.169 71.0123L712.373 71.0123Z" stroke="#00FFF0" stroke-width="3.54236"></path> <path d="M1079.89 71.0123L1074.49 61.6628L1079.89 52.3133L1090.69 52.3133L1096.09 61.6628L1090.69 71.0123L1079.89 71.0123Z" stroke="#00FFF0" stroke-width="3.54236"></path> <defs> <linearGradient id="paint0_linear_132_923" x1="765.594" y1="52.3643" x2="765.594" y2="12.5127" gradientUnits="userSpaceOnUse"> <stop stop-color="#00FFF0"></stop> <stop offset="1" stop-color="#404040"></stop> </linearGradient> <linearGradient id="paint1_linear_132_923" x1="1413" y1="26" x2="1262" y2="26" gradientUnits="userSpaceOnUse"> <stop stop-color="#101010"></stop> <stop offset="1" stop-color="#101010" stop-opacity="0"></stop> </linearGradient> </defs> </svg> 