<?xml version="1.0" encoding="UTF-8"?> <svg xmlns="http://www.w3.org/2000/svg" width="2027" height="1110" viewBox="0 0 2027 1110" fill="none"> <path d="M963.681 257.84L1109.35 341.94V510.14L963.681 594.24L818.015 510.14V341.94L963.681 257.84Z" fill="#151515"></path> <path d="M818.2 616L963.866 700.1V868.3L818.2 952.4L672.535 868.3V700.1L818.2 616Z" fill="#151515"></path> <path d="M1410.87 515.68L1556.54 599.78V767.98L1410.87 852.08L1265.2 767.98V599.78L1410.87 515.68Z" fill="#151515"></path> <path d="M317.263 460L462.928 544.1V712.3L317.263 796.4L171.597 712.3V544.1L317.263 460Z" fill="#151515"></path> <path d="M1559.93 257.84L1705.6 341.94V510.14L1559.93 594.24L1414.27 510.14V341.94L1559.93 257.84Z" fill="#151515"></path> <path d="M1559.93 773.52L1705.6 857.62V1025.82L1559.93 1109.92L1414.27 1025.82V857.62L1559.93 773.52Z" fill="#151515"></path> <path d="M466.327 717.84L611.993 801.94V970.14L466.327 1054.24L320.661 970.14V801.94L466.327 717.84Z" fill="#151515"></path> <path d="M504.2 121L649.866 205.1V373.3L504.2 457.4L358.535 373.3V205.1L504.2 121Z" fill="#151515"></path> <path d="M1112.74 515.68L1258.41 599.78V767.98L1112.74 852.08L967.078 767.98V599.78L1112.74 515.68Z" fill="#151515"></path> <path d="M1261.81 257.84L1407.47 341.94V510.14L1261.81 594.24L1116.14 510.14V341.94L1261.81 257.84Z" fill="#151515"></path> <path d="M168.2 717.84L313.866 801.94V970.14L168.2 1054.24L22.5345 970.14V801.94L168.2 717.84Z" fill="#151515"></path> <path d="M1709 515.68L1854.66 599.78V767.98L1709 852.08L1563.33 767.98V599.78L1709 515.68Z" fill="#151515"></path> <path d="M1709 0L1854.66 84.1001V252.3L1709 336.4L1563.33 252.3V84.1001L1709 0Z" fill="#151515"></path> <path d="M1858.06 257.84L2003.73 341.94V510.14L1858.06 594.24L1712.4 510.14V341.94L1858.06 257.84Z" fill="#151515"></path> <path d="M1858.06 773.52L2003.73 857.62V1025.82L1858.06 1109.92L1712.4 1025.82V857.62L1858.06 773.52Z" fill="#151515"></path> </svg> 