<svg width="132" height="28" viewBox="0 0 132 28" fill="none" xmlns="http://www.w3.org/2000/svg">
<path d="M44.4898 20.0212C45.5072 20.0212 46.0159 19.5125 46.0159 18.4951V8.72826C46.0159 7.71088 45.5072 7.20219 44.4898 7.20219H39.9116V20.0212H44.4898ZM50.5941 18.4951C50.5941 22.3611 48.5593 24.2942 44.4898 24.2942H35.3334V2.9292H44.4898C48.5593 2.9292 50.5941 4.86222 50.5941 8.72826V18.4951Z" fill="white"/>
<path d="M57.0109 11.4752H64.6412V15.7482H57.0109V20.0212H66.1673V24.2942H52.4327V2.9292H66.1673V7.20219H57.0109V11.4752Z" fill="white"/>
<path d="M84.4417 2.9292L78.2763 13.6117L84.4417 24.2942H79.1615L75.6362 18.1899L72.111 24.2942H66.8308L72.9961 13.6117L66.8308 2.9292H72.111L75.6362 9.03347L79.1615 2.9292H84.4417Z" fill="white"/>
<path d="M89.6834 11.7804V24.2942H85.1052V2.9292H89.6834L95.7877 15.443V2.9292H100.366V24.2942H95.7877L89.6834 11.7804Z" fill="white"/>
<path d="M106.783 11.4752H114.413V15.7482H106.783V20.0212H115.939V24.2942H102.204V2.9292H115.939V7.20219H106.783V11.4752Z" fill="white"/>
<path d="M122.356 7.20219H117.778V2.9292H131.512V7.20219H126.934V24.2942H122.356V7.20219Z" fill="white"/>
<path d="M6.96649 28H19.8991L27.982 14L19.8991 0H6.96649L10.6998 6.46632L16.1658 6.46632L20.5154 14L16.1658 21.5337H10.6998L6.96649 28Z" fill="white"/>
<path fill-rule="evenodd" clip-rule="evenodd" d="M0 6.46632L4.34957 14L0 21.5337L3.73333 28L11.8162 14L3.73333 0L0 6.46632Z" fill="#00FFF0"/>
</svg>
