<?xml version="1.0" encoding="UTF-8"?> <svg xmlns="http://www.w3.org/2000/svg" width="90" height="90" viewBox="0 0 90 90" fill="none"> <g opacity="0.3"> <path d="M89 45C89 69.3005 69.3005 89 45 89C20.6995 89 1 69.3005 1 45C1 20.6995 20.6995 0.999999 45 0.999998C69.3005 0.999997 89 20.6995 89 45Z" stroke="white" stroke-width="2"></path> <path d="M75 45C75 57.2498 71.5778 68.2962 66.0968 76.2525C60.6128 84.2131 53.1372 89 45 89C36.8628 89 29.3872 84.2131 23.9032 76.2525C18.4222 68.2962 15 57.2498 15 45C15 32.7502 18.4222 21.7039 23.9032 13.7475C29.3872 5.78687 36.8628 0.999999 45 0.999998C53.1372 0.999998 60.6128 5.78687 66.0968 13.7475C71.5778 21.7038 75 32.7502 75 45Z" stroke="white" stroke-width="2"></path> <path d="M58.5 45C58.5 57.3516 56.8854 68.4933 54.3012 76.5131C53.0074 80.5286 51.488 83.7057 49.8486 85.8577C48.1975 88.0251 46.5495 89 45 89C43.4505 89 41.8026 88.0251 40.1514 85.8577C38.512 83.7057 36.9927 80.5286 35.6988 76.5131C33.1146 68.4933 31.5 57.3516 31.5 45C31.5 32.6484 33.1146 21.5067 35.6988 13.4869C36.9926 9.47137 38.512 6.29432 40.1514 4.14232C41.8025 1.97496 43.4505 0.999999 45 0.999999C46.5495 0.999999 48.1975 1.97496 49.8486 4.14232C51.488 6.29432 53.0074 9.47137 54.3012 13.4869C56.8854 21.5067 58.5 32.6484 58.5 45Z" stroke="white" stroke-width="2"></path> <path d="M45 89C20.6995 89 0.999985 69.3005 0.999985 45C0.999985 20.6995 20.6995 1 45 1C69.3005 1 89 20.6995 89 45C89 69.3005 69.3005 89 45 89Z" stroke="white" stroke-width="2"></path> <path d="M45 75C32.7502 75 21.7039 71.5778 13.7475 66.0968C5.78687 60.6128 0.999993 53.1372 0.999993 45C0.999992 36.8628 5.78687 29.3872 13.7475 23.9032C21.7038 18.4222 32.7502 15 45 15C57.2498 15 68.2962 18.4222 76.2525 23.9032C84.2131 29.3872 89 36.8628 89 45C89 53.1372 84.2131 60.6128 76.2525 66.0968C68.2962 71.5778 57.2498 75 45 75Z" stroke="white" stroke-width="2"></path> <path d="M45 58.4999C32.6484 58.4999 21.5067 56.8853 13.4869 54.3011C9.47136 53.0072 6.29431 51.4879 4.14231 49.8485C1.97495 48.1973 0.999985 46.5493 0.999985 44.9999C0.999985 43.4504 1.97495 41.8024 4.14231 40.1513C6.29431 38.5119 9.47136 36.9925 13.4869 35.6986C21.5067 33.1145 32.6484 31.4999 45 31.4999C57.3516 31.4999 68.4933 33.1145 76.5131 35.6986C80.5286 36.9925 83.7057 38.5119 85.8577 40.1513C88.025 41.8024 89 43.4504 89 44.9999C89 46.5493 88.025 48.1973 85.8577 49.8485C83.7057 51.4879 80.5286 53.0072 76.5131 54.3011C68.4933 56.8853 57.3516 58.4999 45 58.4999Z" stroke="white" stroke-width="2"></path> <circle cx="45" cy="45" r="2.5" fill="white"></circle> </g> </svg> 