<?xml version="1.0" encoding="UTF-8"?> <svg xmlns="http://www.w3.org/2000/svg" width="24" height="24" viewBox="0 0 24 24" fill="none"> <g clip-path="url(#clip0_205_86)"> <path fill-rule="evenodd" clip-rule="evenodd" d="M2 18.185C3.816 19.332 5.972 20 8.29 20C15.838 20 19.965 13.844 19.965 8.506C19.965 8.331 19.961 8.158 19.953 7.985C20.755 7.415 21.451 6.704 22 5.894C21.265 6.216 20.474 6.432 19.644 6.528C20.491 6.031 21.14 5.237 21.448 4.295C20.655 4.757 19.776 5.093 18.842 5.274C18.094 4.49 17.027 4 15.847 4C13.581 4 11.743 5.807 11.743 8.037C11.743 8.355 11.78 8.662 11.85 8.958C8.44 8.79 5.415 7.182 3.393 4.738C3.04 5.336 2.837 6.028 2.837 6.769C2.837 8.17 3.561 9.407 4.662 10.131C3.989 10.112 3.357 9.929 2.803 9.626V9.677C2.803 11.633 4.219 13.267 6.094 13.638C5.751 13.731 5.388 13.779 5.014 13.779C4.749 13.779 4.492 13.755 4.242 13.707C4.763 15.313 6.279 16.481 8.074 16.512C6.67 17.596 4.903 18.24 2.979 18.24C2.648 18.24 2.322 18.224 2 18.185Z" fill="#00FFF0"></path> </g> <defs> <clipPath id="clip0_205_86"> <rect width="20" height="16" fill="white" transform="translate(2 4)"></rect> </clipPath> </defs> </svg> 