<?xml version="1.0" encoding="UTF-8"?> <svg xmlns="http://www.w3.org/2000/svg" width="1333" height="170" viewBox="0 0 1333 170" fill="none"> <g opacity="0.2"> <path d="M0.996815 169.285H153.316C171.251 169.285 178.829 168.78 188.428 166.759C206.868 163.223 221.014 147.561 223.792 127.353C225.308 117.754 226.318 100.325 226.318 85.1685C226.318 77.0852 225.813 65.4655 225.308 57.6348C223.54 36.1636 219.751 25.5543 210.404 16.4606C198.785 4.84085 182.113 0.799198 146.496 0.799198H0.996815V169.285ZM52.2751 129.121V42.7312H139.17C168.725 42.7312 174.787 50.0567 174.787 85.4211C174.787 114.47 171.504 123.311 159.126 127.101C153.064 129.121 152.053 129.121 138.16 129.121H52.2751ZM241.413 0.799198V169.285H429.855V131.142H291.934V101.335H420.256V67.9915H291.934V38.9422H428.087V0.799198H241.413ZM433.865 169.285H503.078L559.914 108.661L616.497 169.285H686.215L601.593 84.4107L680.91 0.799198H614.981L559.914 61.1712L505.857 0.799198H438.159L517.729 85.1685L433.865 169.285ZM689.684 169.285H738.942L737.679 42.4786L838.215 169.285H920.563V0.799198H872.063L873.326 128.869L771.275 0.799198H689.684V169.285ZM938.981 0.799198V169.285H1127.42V131.142H989.502V101.335H1117.82V67.9915H989.502V38.9422H1125.65V0.799198H938.981ZM1206.21 169.285H1257.49V42.4786H1332.51V0.799198H1131.19V42.4786H1206.21V169.285Z" fill="white"></path> <path d="M0.996815 169.285H153.316C171.251 169.285 178.829 168.78 188.428 166.759C206.868 163.223 221.014 147.561 223.792 127.353C225.308 117.754 226.318 100.325 226.318 85.1685C226.318 77.0852 225.813 65.4655 225.308 57.6348C223.54 36.1636 219.751 25.5543 210.404 16.4606C198.785 4.84085 182.113 0.799198 146.496 0.799198H0.996815V169.285ZM52.2751 129.121V42.7312H139.17C168.725 42.7312 174.787 50.0567 174.787 85.4211C174.787 114.47 171.504 123.311 159.126 127.101C153.064 129.121 152.053 129.121 138.16 129.121H52.2751ZM241.413 0.799198V169.285H429.855V131.142H291.934V101.335H420.256V67.9915H291.934V38.9422H428.087V0.799198H241.413ZM433.865 169.285H503.078L559.914 108.661L616.497 169.285H686.215L601.593 84.4107L680.91 0.799198H614.981L559.914 61.1712L505.857 0.799198H438.159L517.729 85.1685L433.865 169.285ZM689.684 169.285H738.942L737.679 42.4786L838.215 169.285H920.563V0.799198H872.063L873.326 128.869L771.275 0.799198H689.684V169.285ZM938.981 0.799198V169.285H1127.42V131.142H989.502V101.335H1117.82V67.9915H989.502V38.9422H1125.65V0.799198H938.981ZM1206.21 169.285H1257.49V42.4786H1332.51V0.799198H1131.19V42.4786H1206.21V169.285Z" fill="url(#paint0_linear_117_124)"></path> </g> <defs> <linearGradient id="paint0_linear_117_124" x1="556.151" y1="195.84" x2="556.151" y2="-134.408" gradientUnits="userSpaceOnUse"> <stop stop-color="#101010"></stop> <stop offset="1" stop-opacity="0"></stop> </linearGradient> </defs> </svg> 